<svg width="20" height="20" viewBox="0 0 20 20" fill="none" xmlns="http://www.w3.org/2000/svg">
<g id="material-symbols:edit-square-outline">
<path id="Vector" d="M4.16667 19.7499C3.70833 19.7499 3.31583 19.5866 2.98917 19.2599C2.66306 18.9338 2.5 18.5416 2.5 18.0833V6.41658C2.5 5.95825 2.66306 5.56575 2.98917 5.23909C3.31583 4.91297 3.70833 4.74992 4.16667 4.74992H11.6042L9.9375 6.41658H4.16667V18.0833H15.8333V12.2916L17.5 10.6249V18.0833C17.5 18.5416 17.3369 18.9338 17.0108 19.2599C16.6842 19.5866 16.2917 19.7499 15.8333 19.7499H4.16667ZM13.4792 5.22909L14.6667 6.39575L9.16667 11.8958V13.0833H10.3333L15.8542 7.56242L17.0417 8.72909L11.0417 14.7499H7.5V11.2083L13.4792 5.22909ZM17.0417 8.72909L13.4792 5.22909L15.5625 3.14575C15.8958 2.81242 16.2953 2.64575 16.7608 2.64575C17.2258 2.64575 17.6181 2.81242 17.9375 3.14575L19.1042 4.33325C19.4236 4.6527 19.5833 5.04159 19.5833 5.49992C19.5833 5.95825 19.4236 6.34714 19.1042 6.66658L17.0417 8.72909Z" fill="white"/>
</g>
</svg>
