<svg width="24" height="25" viewBox="0 0 24 25" fill="none" xmlns="http://www.w3.org/2000/svg">
<g id="Group">
<path id="Vector" d="M15.3845 12.861C19.5903 12.861 22.9999 11.3457 22.9999 9.47641C22.9999 7.60714 19.5903 6.0918 15.3845 6.0918C11.1786 6.0918 7.7691 7.60714 7.7691 9.47641C7.7691 11.3457 11.1786 12.861 15.3845 12.861Z" stroke="#3F4254" stroke-width="2" stroke-linecap="round" stroke-linejoin="round"/>
<path id="Vector_2" d="M7.7691 9.47607V19.6299C7.7691 21.4915 11.1537 23.0145 15.3845 23.0145C19.6153 23.0145 22.9999 21.4915 22.9999 19.6299V9.47607" stroke="#3F4254" stroke-width="2" stroke-linecap="round" stroke-linejoin="round"/>
<path id="Vector_3" d="M23 14.5533C23 16.4149 19.6154 17.9379 15.3846 17.9379C11.1538 17.9379 7.76923 16.4149 7.76923 14.5533M15.2154 2.70716C13.2379 1.4868 10.9361 0.896587 8.61538 1.01485C4.40154 1.01485 1 2.53793 1 4.39947C1 5.39793 1.98154 6.29485 3.53846 6.93793" stroke="#3F4254" stroke-width="2" stroke-linecap="round" stroke-linejoin="round"/>
<path id="Vector_4" d="M3.53846 17.092C1.98154 16.4489 1 15.552 1 14.5535V4.39966" stroke="#3F4254" stroke-width="2" stroke-linecap="round" stroke-linejoin="round"/>
<path id="Vector_5" d="M3.53846 12.0145C1.98154 11.3715 1 10.4745 1 9.47607" stroke="#3F4254" stroke-width="2" stroke-linecap="round" stroke-linejoin="round"/>
</g>
</svg>
