<svg width="20" height="20" viewBox="0 0 20 20" fill="none" xmlns="http://www.w3.org/2000/svg">
<path d="M19 5C19 7.21 14.97 9 10 9C5.03 9 1 7.21 1 5C1 2.79 5.03 1 10 1C14.97 1 19 2.79 19 5Z" fill="#3F4254"/>
<path d="M19 5C19 7.21 14.97 9 10 9C5.03 9 1 7.21 1 5M19 5C19 2.79 14.97 1 10 1C5.03 1 1 2.79 1 5M19 5V10M1 5V10M1 10C1 12.21 5.03 14 10 14M1 10V15C1 17.21 5.03 19 10 19M16 13V16M16 16V19M16 16H19M16 16H13" stroke="#3F4254" stroke-width="2" stroke-linecap="round" stroke-linejoin="round"/>
</svg>
