<svg width="22" height="17" viewBox="0 0 22 17" fill="none" xmlns="http://www.w3.org/2000/svg">
<path d="M12.1 4.25C12.1 6.59746 10.1303 8.5 7.7 8.5C5.26969 8.5 3.3 6.59746 3.3 4.25C3.3 1.90254 5.26969 0 7.7 0C10.1303 0 12.1 1.90254 12.1 4.25ZM0 16.0139C0 12.7434 2.74313 10.0938 6.12906 10.0938H9.27094C12.6569 10.0938 15.4 12.7434 15.4 16.0139C15.4 16.5584 14.9428 17 14.3791 17H1.02094C0.457188 17 0 16.5584 0 16.0139ZM21.4844 5.87695L17.0844 10.127C16.7613 10.4391 16.2388 10.4391 15.9191 10.127L13.7191 8.00195C13.3959 7.68984 13.3959 7.18516 13.7191 6.87637C14.0422 6.56758 14.5647 6.56426 14.8844 6.87637L16.5 8.43691L20.3156 4.74805C20.6388 4.43594 21.1613 4.43594 21.4809 4.74805C21.8006 5.06016 21.8041 5.56484 21.4809 5.87363L21.4844 5.87695Z" fill="#3F4254"/>
</svg>
