<svg width="21" height="21" viewBox="0 0 21 21" fill="none" xmlns="http://www.w3.org/2000/svg">
<path d="M4.69471 0.292786C4.50718 0.105315 4.25288 0 3.98771 0C3.72255 0 3.46824 0.105315 3.28071 0.292786L1.98771 1.58579L1.69471 1.29279C1.50611 1.11063 1.25351 1.00983 0.99131 1.01211C0.729114 1.01439 0.478301 1.11956 0.292893 1.30497C0.107485 1.49038 0.00231622 1.74119 3.78026e-05 2.00339C-0.00224062 2.26558 0.0985537 2.51818 0.280712 2.70679L1.28071 3.70679C1.46824 3.89426 1.72255 3.99957 1.98771 3.99957C2.25288 3.99957 2.50718 3.89426 2.69471 3.70679L4.69471 1.70679C4.88218 1.51926 4.9875 1.26495 4.9875 0.999786C4.9875 0.734622 4.88218 0.480314 4.69471 0.292786ZM8.98771 15.4998C8.98771 15.6658 8.99371 15.8298 9.00571 15.9928H7.98771C7.73283 15.9925 7.48768 15.8949 7.30234 15.7199C7.11701 15.545 7.00548 15.3058 6.99054 15.0514C6.9756 14.7969 7.05839 14.5464 7.22198 14.351C7.38557 14.1555 7.61762 14.0299 7.87071 13.9998L7.98771 13.9928H9.16271C9.04594 14.4866 8.98721 14.9924 8.98771 15.4998ZM15.4877 8.99979C16.7145 8.99778 17.9165 9.3446 18.9537 9.99979H18.9917L19.1077 9.99279C19.3606 9.96271 19.5926 9.83725 19.7561 9.64201C19.9197 9.44677 20.0026 9.19647 19.988 8.94218C19.9733 8.68789 19.8621 8.44878 19.6772 8.27365C19.4922 8.09852 19.2474 8.00057 18.9927 7.99979H7.98771L7.87071 8.00679C7.61762 8.03689 7.38557 8.1625 7.22198 8.35795C7.05839 8.55341 6.9756 8.80395 6.99054 9.05839C7.00548 9.31283 7.11701 9.55197 7.30234 9.72694C7.48768 9.90191 7.73283 9.9995 7.98771 9.99979H12.0217C13.0589 9.3446 14.2609 8.99778 15.4877 8.99979ZM18.9917 1.99979H7.98771L7.87071 2.00679C7.61762 2.03689 7.38557 2.1625 7.22198 2.35795C7.05839 2.55341 6.9756 2.80395 6.99054 3.05839C7.00548 3.31283 7.11701 3.55197 7.30234 3.72694C7.48768 3.90191 7.73283 3.9995 7.98771 3.99979H18.9917L19.1077 3.99279C19.3606 3.96271 19.5926 3.83725 19.7561 3.64201C19.9197 3.44677 20.0026 3.19647 19.988 2.94218C19.9733 2.68789 19.8621 2.44878 19.6772 2.27365C19.4922 2.09852 19.2464 2.00057 18.9917 1.99979ZM4.69471 13.2928C4.50718 13.1053 4.25288 13 3.98771 13C3.72255 13 3.46824 13.1053 3.28071 13.2928L1.98771 14.5858L1.69471 14.2928C1.50611 14.1106 1.25351 14.0098 0.99131 14.0121C0.729114 14.0144 0.478301 14.1196 0.292893 14.305C0.107485 14.4904 0.00231622 14.7412 3.78026e-05 15.0034C-0.00224062 15.2656 0.0985537 15.5182 0.280712 15.7068L1.28071 16.7068C1.46824 16.8943 1.72255 16.9996 1.98771 16.9996C2.25288 16.9996 2.50718 16.8943 2.69471 16.7068L4.69471 14.7068C4.88218 14.5193 4.9875 14.265 4.9875 13.9998C4.9875 13.7346 4.88218 13.4803 4.69471 13.2928ZM3.28071 6.79279C3.46931 6.61063 3.72192 6.50983 3.98411 6.51211C4.24631 6.51439 4.49712 6.61956 4.68253 6.80497C4.86794 6.99038 4.97311 7.24119 4.97539 7.50339C4.97766 7.76558 4.87687 8.01818 4.69471 8.20679L2.69471 10.2068C2.50718 10.3943 2.25288 10.4996 1.98771 10.4996C1.72255 10.4996 1.46824 10.3943 1.28071 10.2068L0.280712 9.20679C0.0985537 9.01818 -0.00224062 8.76558 3.78026e-05 8.50339C0.00231622 8.24119 0.107485 7.99038 0.292893 7.80497C0.478301 7.61956 0.729114 7.51439 0.99131 7.51211C1.25351 7.50983 1.50611 7.61063 1.69471 7.79279L1.98771 8.08579L3.28071 6.79279ZM20.9877 15.4998C20.9877 14.0411 20.4082 12.6421 19.3768 11.6107C18.3453 10.5792 16.9464 9.99979 15.4877 9.99979C14.029 9.99979 12.6301 10.5792 11.5986 11.6107C10.5672 12.6421 9.98771 14.0411 9.98771 15.4998C9.98771 16.9585 10.5672 18.3574 11.5986 19.3889C12.6301 20.4203 14.029 20.9998 15.4877 20.9998C16.9464 20.9998 18.3453 20.4203 19.3768 19.3889C20.4082 18.3574 20.9877 16.9585 20.9877 15.4998ZM15.9877 15.9998L15.9887 18.5028C15.9887 18.6354 15.936 18.7626 15.8423 18.8563C15.7485 18.9501 15.6213 19.0028 15.4887 19.0028C15.3561 19.0028 15.2289 18.9501 15.1352 18.8563C15.0414 18.7626 14.9887 18.6354 14.9887 18.5028V15.9998H12.4837C12.3511 15.9998 12.2239 15.9471 12.1302 15.8533C12.0364 15.7596 11.9837 15.6324 11.9837 15.4998C11.9837 15.3672 12.0364 15.24 12.1302 15.1462C12.2239 15.0525 12.3511 14.9998 12.4837 14.9998H14.9877V12.4998C14.9877 12.3672 15.0404 12.24 15.1342 12.1462C15.2279 12.0525 15.3551 11.9998 15.4877 11.9998C15.6203 11.9998 15.7475 12.0525 15.8413 12.1462C15.935 12.24 15.9877 12.3672 15.9877 12.4998V14.9998H18.4847C18.6173 14.9998 18.7445 15.0525 18.8383 15.1462C18.932 15.24 18.9847 15.3672 18.9847 15.4998C18.9847 15.6324 18.932 15.7596 18.8383 15.8533C18.7445 15.9471 18.6173 15.9998 18.4847 15.9998H15.9877Z" fill="#3F4254"/>
</svg>
